<svg width="97" height="130" viewBox="0 0 97 130" fill="none" xmlns="http://www.w3.org/2000/svg">
<path d="M92.7861 119.236L83.6299 26.5045V16.1185H85.0214C86.4424 16.1196 87.6826 15.1595 88.0363 13.7851L90.5853 3.87958V3.8785C90.8249 2.94884 90.6202 1.96046 90.03 1.2015C89.4409 0.442532 88.5328 -0.00108359 87.5703 1.99391e-06H-43.1196C-44.0811 -0.00108526 -44.9892 0.442532 -45.5793 1.2015C-46.1684 1.96046 -46.3731 2.94882 -46.1335 3.8785L-43.5846 13.7852C-43.2318 15.1595 -41.9905 16.1196 -40.5708 16.1186H-39.0366V26.5046L-48.1819 119.111C-49.5212 119.314 -50.7429 119.989 -51.627 121.013C-52.51 122.039 -52.9978 123.346 -53 124.698V128.173C-53 129.182 -52.1812 130 -51.1707 130H95.1707C96.1812 130 97 129.182 97 128.173V124.698C96.9978 123.451 96.5841 122.24 95.8219 121.253C95.0597 120.264 93.9915 119.555 92.7849 119.234L92.7861 119.236ZM72.4811 3.65434H86.8658L84.5977 12.466H72.4809L72.4811 3.65434ZM58.3206 3.65434H68.8226V12.466H58.3206V3.65434ZM44.16 3.65434H54.6621V12.466H44.16V3.65434ZM29.9995 3.65434H40.5015V12.466H29.9995V3.65434ZM15.8389 3.65434H26.3409V12.466H15.8389V3.65434ZM1.67836 3.65434H12.1804V12.466H1.67836V3.65434ZM-12.4822 3.65434H-1.98018V12.466H-12.4811L-12.4822 3.65434ZM-26.6428 3.65434H-16.1396V12.466H-26.6439L-26.6428 3.65434ZM-40.1466 12.466L-42.4147 3.65434H-30.3023V12.466H-40.1466ZM-35.5506 28.4213H-27.0174C-26.0069 28.4213 -25.1881 27.6036 -25.1881 26.5946C-25.1881 25.5855 -26.0069 24.7679 -27.0174 24.7679H-35.3775V16.1194H-23.7073V18.9093C-23.7073 19.9184 -22.8885 20.736 -21.878 20.736C-20.8676 20.736 -20.0488 19.9184 -20.0488 18.9093V16.1194H1.95571V18.9093C1.95571 19.9184 2.77452 20.736 3.78498 20.736C4.79543 20.736 5.61424 19.9184 5.61424 18.9093V16.1194H27.6187V18.9093C27.6187 19.9184 28.4375 20.736 29.448 20.736C30.4584 20.736 31.2772 19.9184 31.2772 18.9093V16.1194H53.2809V18.9093C53.2809 19.9184 54.0997 20.736 55.1101 20.736C56.1206 20.736 56.9394 19.9184 56.9394 18.9093V16.1194H79.9708V24.7679H69.7715V21.0101C69.7715 20.001 68.9516 19.1834 67.9422 19.1834C66.9317 19.1834 66.1129 20.001 66.1129 21.0101V24.7679H44.1073V21.0101C44.1073 20.001 43.2885 19.1834 42.2781 19.1834C41.2687 19.1834 40.4488 20.001 40.4488 21.0101V24.7679H18.4444V21.0101C18.4444 20.001 17.6255 19.1834 16.6151 19.1834C15.6046 19.1834 14.7858 20.001 14.7858 21.0101V24.7679H-7.21865V21.0101C-7.21865 20.001 -8.03746 19.1834 -9.04792 19.1834C-10.0584 19.1834 -10.8772 20.001 -10.8772 21.0101V24.7679H-14.822C-15.8314 24.7679 -16.6513 25.5855 -16.6513 26.5946C-16.6513 27.6036 -15.8314 28.4213 -14.822 28.4213H80.1411L89.0894 119.04H83.4894L74.2342 43.1296C74.122 42.213 73.3424 41.5236 72.418 41.5236H-27.6433C-28.5667 41.5236 -29.3452 42.2119 -29.4585 43.1274L-38.8368 119.038H-44.4987L-35.5506 28.4213ZM79.8055 119.04H66.882V45.1783H70.7986L79.8055 119.04ZM55.3347 108.196V106.503C55.3347 105.494 54.5148 104.676 53.5054 104.676C52.4949 104.676 51.6761 105.494 51.6761 106.503V119.04H41.8601V45.1783H51.675V94.3247C51.675 95.3327 52.4938 96.1514 53.5043 96.1514C54.5147 96.1514 55.3335 95.3327 55.3335 94.3247V56.7801H63.2234V108.195L55.3347 108.196ZM63.2246 111.849V119.04H55.3335V111.849H63.2246ZM55.3335 53.1276V45.1791H63.2234V53.1276H55.3335ZM30.3117 108.197V56.7824H38.2016V108.197H30.3117ZM38.2016 111.851V119.041H30.3117V111.851H38.2016ZM30.3117 53.1289V45.1805H38.2016V53.1289H30.3117ZM26.6531 45.1805V119.042H18.1221V45.1805H26.6531ZM6.57369 108.197V56.7824H14.4636V108.197H6.57369ZM14.4636 111.851V119.041H6.57369V111.851H14.4636ZM6.57369 53.1289V45.1805H14.4636V53.1289H6.57369ZM2.91515 45.1805V119.042H-7.54227V45.1805H2.91515ZM-19.0904 108.197V56.7824H-11.2005V108.197H-19.0904ZM-11.2005 111.851L-11.1994 119.041H-19.0905V111.851H-11.2005ZM-19.0904 53.1289V45.1805H-11.2005V53.1289H-19.0904ZM-22.749 45.1805V119.042H-35.1487L-26.0242 45.1805H-22.749ZM93.343 126.349H-49.3413V124.701C-49.3402 123.594 -48.4419 122.697 -47.3335 122.696H91.3341C92.4426 122.697 93.3409 123.594 93.342 124.701L93.343 126.349Z" fill="#F1BB55"/>
</svg>
