<svg width="22" height="30" viewBox="0 0 22 30" fill="none" xmlns="http://www.w3.org/2000/svg">
<path d="M10.5405 6.75C11.5389 6.75 12.4965 7.14509 13.2024 7.84835C13.9084 8.55161 14.305 9.50544 14.305 10.5C14.305 10.9925 14.2076 11.4801 14.0185 11.9351C13.8293 12.39 13.552 12.8034 13.2024 13.1517C12.8529 13.4999 12.4379 13.7761 11.9811 13.9645C11.5244 14.153 11.0349 14.25 10.5405 14.25C9.54214 14.25 8.58463 13.8549 7.87865 13.1517C7.17268 12.4484 6.77606 11.4946 6.77606 10.5C6.77606 9.50544 7.17268 8.55161 7.87865 7.84835C8.58463 7.14509 9.54214 6.75 10.5405 6.75ZM10.5405 0C13.3361 0 16.0171 1.10625 17.9938 3.07538C19.9706 5.04451 21.0811 7.71523 21.0811 10.5C21.0811 18.375 10.5405 30 10.5405 30C10.5405 30 0 18.375 0 10.5C0 7.71523 1.11052 5.04451 3.08725 3.07538C5.06399 1.10625 7.74502 0 10.5405 0ZM10.5405 3C8.54374 3 6.62872 3.79018 5.21676 5.1967C3.80481 6.60322 3.01158 8.51088 3.01158 10.5C3.01158 12 3.01158 15 10.5405 25.065C18.0695 15 18.0695 12 18.0695 10.5C18.0695 8.51088 17.2763 6.60322 15.8643 5.1967C14.4524 3.79018 12.5373 3 10.5405 3Z" fill="#F1BB55"/>
</svg>
