<svg width="28" height="26" viewBox="0 0 28 26" fill="none" xmlns="http://www.w3.org/2000/svg">
<path d="M2.75 20.5C2.0625 20.5 1.47375 20.255 0.983752 19.765C0.493752 19.275 0.249169 18.6867 0.250002 18V3C0.250002 2.3125 0.495002 1.72375 0.985002 1.23375C1.475 0.743752 2.06334 0.499169 2.75 0.500002H22.75C23.4375 0.500002 24.0263 0.745002 24.5163 1.235C25.0063 1.725 25.2508 2.31334 25.25 3V9.25H22.75V5.5L13.4063 11.3438C13.3021 11.4063 13.1925 11.4533 13.0775 11.485C12.9625 11.5167 12.8533 11.5321 12.75 11.5313C12.6458 11.5313 12.5363 11.5158 12.4213 11.485C12.3063 11.4542 12.1971 11.4071 12.0938 11.3438L2.75 5.5V18H15.25V20.5H2.75ZM12.75 9.25L22.75 3H2.75L12.75 9.25ZM22.75 25.5C21.375 25.5 20.1979 25.0104 19.2188 24.0313C18.2396 23.0521 17.75 21.875 17.75 20.5V14.875C17.75 14 18.0521 13.2604 18.6563 12.6563C19.2604 12.0521 20 11.75 20.875 11.75C21.75 11.75 22.4896 12.0521 23.0938 12.6563C23.6979 13.2604 24 14 24 14.875V19.25C24 19.6042 23.88 19.9013 23.64 20.1413C23.4 20.3813 23.1033 20.5008 22.75 20.5C22.3958 20.5 22.0988 20.38 21.8588 20.14C21.6188 19.9 21.4992 19.6033 21.5 19.25V14.875C21.5 14.7083 21.4375 14.5625 21.3125 14.4375C21.1875 14.3125 21.0417 14.25 20.875 14.25C20.7083 14.25 20.5625 14.3125 20.4375 14.4375C20.3125 14.5625 20.25 14.7083 20.25 14.875V20.5C20.25 21.1875 20.495 21.7763 20.985 22.2663C21.475 22.7563 22.0633 23.0008 22.75 23C23.4375 23 24.0263 22.755 24.5163 22.265C25.0063 21.775 25.2508 21.1867 25.25 20.5V16.75C25.25 16.3958 25.37 16.0988 25.61 15.8588C25.85 15.6188 26.1467 15.4992 26.5 15.5C26.8542 15.5 27.1513 15.62 27.3913 15.86C27.6313 16.1 27.7508 16.3967 27.75 16.75V20.5C27.75 21.875 27.2604 23.0521 26.2813 24.0313C25.3021 25.0104 24.125 25.5 22.75 25.5ZM2.75 5.8125V4C2.75 3.77084 2.75 3.77084 2.75 4V3.96875V5.8125Z" fill="#F1BB55"/>
</svg>
