<svg width="159" height="167" viewBox="0 0 159 167" fill="none" xmlns="http://www.w3.org/2000/svg">
<path d="M155.431 149.788H152.422L152.423 68.6728H155.23C157.2 68.6704 158.797 67.0734 158.798 65.1042V55.6656C158.797 53.6952 157.2 52.0983 155.23 52.0958H152.787C151.305 46.9898 151.358 42.6864 152.961 39.5919C153.356 38.8292 153.229 37.8991 152.644 37.2698C152.06 36.6393 151.142 36.444 150.352 36.7823L145.92 35.5831L145.853 35.5661C145.182 35.4073 144.65 34.9029 144.456 34.242L142.2 26.5349H142.199C141.833 25.2993 141.079 24.2153 140.049 23.4404C139.02 22.6656 137.77 22.2424 136.482 22.2303L132.118 22.2121V22.2133C131.269 22.2061 130.526 21.641 130.293 20.8249C130.06 20.0089 130.391 19.1358 131.109 18.6823C132.102 18.0627 132.813 17.0781 133.088 15.9395C133.362 14.8021 133.18 13.6017 132.579 12.5963L130.988 9.90679H130.989C130.398 8.89551 129.434 8.15706 128.304 7.85027C127.174 7.54349 125.968 7.69385 124.948 8.26862L118.795 11.6857C116.528 12.9444 114.02 13.7095 111.436 13.9302L111.519 2.05047V2.05169C111.522 1.50845 111.309 0.987044 110.927 0.601442C110.545 0.217051 110.025 6.48477e-06 109.482 6.48477e-06H25.1318C23.7858 -0.0024185 22.5296 0.675415 21.7935 1.80189L20.8429 3.2485L16.8546 0.64875C16.2059 0.225557 15.448 3.75688e-05 14.6732 3.75688e-05H5.90761C4.34095 0.00246256 2.83859 0.625717 1.73155 1.73521C0.624469 2.8435 0.00121063 4.34589 0 5.91251V6.91532V6.91411C0.0024253 9.87156 1.17742 12.7065 3.26653 14.7981C5.35565 16.8897 8.18946 18.0659 11.1471 18.0709H15.9344V24.6756C15.938 27.2972 16.9809 29.8096 18.8336 31.6625C20.6877 33.5154 23.2012 34.5569 25.8218 34.5594H27.4721C29.0933 35.8495 34.6701 41.2296 31.6177 52.0967H29.1829C27.2124 52.0992 25.6168 53.6949 25.6143 55.6653V65.1039C25.6167 67.0743 27.2125 68.67 29.1829 68.6725H31.9888V149.788H29.3842C27.4137 149.79 25.8168 151.387 25.8144 153.356V162.795C25.818 164.766 27.4137 166.361 29.3842 166.364H61.2021C63.1725 166.361 64.7694 164.765 64.7706 162.795V153.356C64.7694 151.386 63.1725 149.79 61.2021 149.788H58.1949V130.754C58.1949 129.162 58.2664 127.551 58.4083 125.967L59.3541 115.351C59.3662 115.216 59.3638 115.081 59.3493 114.946L58.1828 104.434C58.1622 104.248 58.1173 104.064 58.047 103.891L54.4517 95.0392C53.649 93.0772 53.6575 90.8777 54.4747 88.9218L57.4358 81.7797H57.4346C57.9391 80.5671 58.1973 79.2672 58.1973 77.9541V68.6719H61.0032C62.9737 68.6695 64.5693 67.0726 64.5718 65.1034V55.6648C64.5694 53.6943 62.9736 52.0975 61.0032 52.095H58.5672C55.503 41.2049 61.0505 35.866 62.7094 34.5576H120.429V34.5588C121.308 34.5576 122.15 34.9116 122.765 35.541C125.053 37.9067 128.367 43.1292 125.845 52.0962H123.408L123.409 52.095C121.439 52.0974 119.842 53.6944 119.839 55.6648V65.1034C119.842 67.0726 121.439 68.6695 123.409 68.672H126.217V75.3351C126.216 76.0966 126.442 76.8411 126.865 77.4741L135.023 89.7052L136.569 96.7271L131.918 94.1808C130.725 93.5272 129.274 93.5527 128.105 94.2462C126.935 94.9398 126.218 96.1997 126.219 97.5603V149.788H123.613C121.642 149.791 120.047 151.388 120.044 153.357V162.795C120.047 164.765 121.643 166.36 123.61 166.364H155.431C157.402 166.361 158.998 164.766 159 162.795V153.357C158.998 151.387 157.402 149.791 155.431 149.788L155.431 149.788ZM13.2155 13.9957H11.1444C9.26854 13.9921 7.47029 13.2451 6.14387 11.9174C4.81854 10.5896 4.07279 8.79021 4.07279 6.91311V5.91151C4.07279 4.89781 4.89248 4.07567 5.90618 4.07324H13.2156L13.2155 13.9957ZM100.133 4.07318H107.43L107.362 13.9957H100.134L100.133 4.07318ZM87.9621 4.07318H96.0584V13.9957H87.9621V4.07318ZM76.5759 4.07318H83.8878V13.9957H76.5759V4.07318ZM64.4053 4.07318H72.5017V13.9957H64.4041L64.4053 4.07318ZM53.0192 4.07318H60.3311L60.3299 13.9957H53.0192L53.0192 4.07318ZM40.8474 4.07318H48.945V13.9957H40.8474V4.07318ZM29.4612 4.07318H36.7731V13.9957H29.4625L29.4612 4.07318ZM17.2907 13.9957V5.79631L18.9204 6.85854C20.6337 7.97045 22.9232 7.49272 24.0472 5.78784L25.1737 4.07328H25.3871L25.3883 13.9958L17.2907 13.9957ZM60.6965 153.861V162.288H29.8887V153.861H60.6965ZM36.062 149.787V141.662H54.1209V149.787H36.062ZM54.1209 77.9528C54.1221 78.73 53.9693 79.5 53.6698 80.2178L50.5899 87.6667L49.3191 86.7293L49.3203 86.7306C48.2411 86.003 47.1061 85.3615 45.9274 84.8098C44.9016 84.3478 43.6951 84.8062 43.2343 85.8321C42.7723 86.8579 43.2294 88.0644 44.2565 88.5252C44.6154 88.6864 45.0034 88.8829 45.4024 89.1024C44.1728 90.036 43.3022 90.7345 42.7274 91.211C41.5015 92.226 40.8685 93.789 41.0432 95.37L41.3584 98.2632C41.47 99.2963 42.3418 100.078 43.381 100.08C43.4549 100.08 43.5301 100.076 43.6041 100.068C44.1413 100.009 44.6324 99.7401 44.9719 99.3182C45.3102 98.8974 45.4666 98.359 45.4084 97.8218L45.0931 94.9286C45.0689 94.7067 45.1586 94.4885 45.3308 94.3466C46.0159 93.7779 47.1496 92.8721 48.8727 91.5929C49.3007 91.9748 49.6269 92.4587 49.8233 92.9982C49.9252 94.2253 50.2125 95.4306 50.6769 96.5718L54.1654 105.162L55.2786 115.19L54.3509 125.603C54.1994 127.308 54.1218 129.041 54.1218 130.753L54.123 137.59H50.7655C50.9692 131.622 47.4139 125.978 47.2416 125.71H47.2404C46.6353 124.76 45.3755 124.483 44.4272 125.088C43.479 125.694 43.2013 126.953 43.8064 127.901C43.8404 127.955 46.9277 132.887 46.6887 137.589H36.0618V68.6703H54.1207L54.1209 77.9528ZM60.4953 56.1688V64.5961H29.6875V56.1688H60.4953ZM54.3537 52.0946H35.8304C37.5619 44.9404 36.045 39.8039 34.3377 36.6404C33.9473 35.9165 33.5059 35.2205 33.0196 34.5572H57.1643C56.6781 35.2205 56.2367 35.9165 55.8462 36.6404C54.1401 39.8039 52.6232 44.9416 54.3536 52.0958L54.3537 52.0946ZM125.694 32.708C124.311 31.2869 122.412 30.4854 120.429 30.4842H25.8197C24.5514 30.4817 23.317 30.0658 22.307 29.2983C21.2969 28.5295 20.5658 27.4527 20.2238 26.2305H34.5673C35.6926 26.2305 36.6045 25.3186 36.6045 24.1934C36.6045 23.0693 35.6926 22.1562 34.5673 22.1562H20.0056V18.0699H109.878C113.691 18.0675 117.441 17.0962 120.774 15.2458L126.927 11.8262V11.825C127.122 11.7159 127.369 11.7838 127.481 11.9766L129.072 14.6661C129.188 14.8601 129.128 15.1111 128.936 15.2311C127.834 15.9174 126.986 16.9457 126.524 18.1595C126.062 19.3721 126.009 20.7035 126.374 21.9488C126.713 23.2038 127.46 24.3109 128.496 25.0955C129.533 25.8812 130.801 26.2996 132.101 26.285L136.465 26.3032V26.302C137.309 26.3105 138.05 26.867 138.29 27.677L140.546 35.3841H140.545C140.842 36.3942 141.399 37.3085 142.16 38.0348C142.923 38.7611 143.863 39.2741 144.885 39.5214L148.268 40.4381C147.32 43.763 147.419 47.665 148.559 52.0959H130.057C132.558 41.8425 128.503 35.6145 125.693 32.7081L125.694 32.708ZM123.915 64.5973V56.1701H154.724V64.5973H123.915ZM130.291 128.36C131.233 128.126 132.667 127.801 134.646 127.441C135.716 127.207 136.83 127.267 137.869 127.611C138.595 127.887 139.413 127.733 139.989 127.213C140.512 126.734 140.748 126.02 140.613 125.324C140.48 124.629 139.994 124.053 139.332 123.804C138.643 123.545 137.924 123.374 137.193 123.294L137.354 122.835C138.02 120.943 139.375 119.373 141.15 118.439L143.697 117.101C144.698 116.594 145.12 115.386 144.655 114.365C144.412 113.87 143.981 113.494 143.458 113.322C142.934 113.151 142.364 113.198 141.876 113.456L139.254 114.838C136.567 116.246 134.514 118.622 133.512 121.486L132.75 123.656C131.788 123.844 130.971 124.018 130.291 124.175V97.9372L134.942 100.484C136.295 101.246 137.969 101.146 139.221 100.227C140.425 99.3231 140.985 97.7977 140.651 96.3304L138.992 88.7894C138.889 88.3226 138.7 87.8788 138.434 87.4811L130.291 75.2705V68.6741H148.348V137.593H130.291L130.291 128.36ZM130.291 141.665H148.349V149.789L130.291 149.79V141.665ZM154.924 162.292H124.115V153.864H154.924V162.292Z" fill="#F1BB55"/>
</svg>
