<svg width="285" height="218" viewBox="0 0 285 218" fill="none" xmlns="http://www.w3.org/2000/svg">
<path d="M41.9214 27.5444C56.5376 27.5444 70.4059 21.1434 79.9467 10.2052C89.4868 21.1464 103.352 27.5444 117.972 27.5444C132.588 27.5444 146.457 21.1434 155.997 10.2052C165.538 21.1464 179.403 27.5444 194.023 27.5444C208.639 27.5444 222.507 21.1434 232.048 10.2052C241.588 21.1464 255.454 27.5444 270.073 27.5444C286.409 27.5444 301.814 19.5468 311.281 6.15136C312.527 4.39132 312.108 1.95932 310.348 0.716092C308.58 -0.527138 306.156 -0.110895 304.913 1.64914C296.899 12.9797 283.874 19.7446 270.068 19.7446C256.263 19.7446 243.238 12.9819 235.229 1.65193C233.765 -0.415573 230.324 -0.415573 228.861 1.65193C220.852 12.9797 207.827 19.7446 194.021 19.7446C180.216 19.7446 167.191 12.9819 159.182 1.65193C157.719 -0.415573 154.277 -0.415573 152.814 1.65193C144.802 12.9797 131.777 19.7446 117.972 19.7446C104.166 19.7446 91.1411 12.9819 83.1324 1.65193C81.6689 -0.415573 78.2276 -0.415573 76.7641 1.65193C68.7554 12.9797 55.7305 19.7446 41.9249 19.7446C28.1192 19.7446 15.0943 12.9819 7.08558 1.65193C5.84514 -0.110824 3.41315 -0.527068 1.65033 0.716092C-0.109708 1.95654 -0.528672 4.39125 0.717274 6.15136C10.187 19.5461 25.5923 27.5444 41.9252 27.5444H41.9214Z" fill="#FFECC7"/>
<path d="M0.714908 53.6958C10.1847 67.0905 25.59 75.0888 41.9228 75.0888C56.5391 75.0888 70.4074 68.6878 79.9482 57.7496C89.4883 68.6909 103.354 75.0888 117.974 75.0888C132.59 75.0888 146.458 68.6878 155.999 57.7496C165.539 68.6909 179.404 75.0888 194.024 75.0888C208.64 75.0888 222.509 68.6878 232.05 57.7496C241.59 68.6909 255.455 75.0888 270.075 75.0888C286.411 75.0888 301.816 67.0912 311.283 53.6958C312.529 51.9358 312.11 49.5038 310.35 48.2605C308.581 47.0173 306.158 47.4335 304.914 49.1936C296.9 60.5242 283.875 67.2863 270.07 67.2863C256.264 67.2863 243.239 60.5235 235.23 49.1936C233.767 47.1261 230.326 47.1261 228.862 49.1936C220.853 60.5242 207.828 67.2863 194.023 67.2863C180.217 67.2863 167.192 60.5235 159.184 49.1936C157.72 47.1261 154.279 47.1261 152.815 49.1936C144.804 60.5242 131.779 67.2863 117.973 67.2863C104.168 67.2863 91.1426 60.5235 83.1339 49.1936C81.6703 47.1261 78.2291 47.1261 76.7656 49.1936C68.7569 60.5242 55.7319 67.2863 41.9263 67.2863C28.1207 67.2863 15.0958 60.5235 7.08705 49.1936C5.8466 47.4335 3.41461 47.0173 1.65179 48.2605C-0.108243 49.501 -0.527207 51.9357 0.718739 53.6958H0.714908Z" fill="#FFECC7"/>
<path d="M0.714908 101.243C10.1847 114.635 25.59 122.633 41.9228 122.633C56.5391 122.633 70.4074 116.232 79.9482 105.294C89.4883 116.235 103.354 122.633 117.974 122.633C132.59 122.633 146.458 116.232 155.999 105.294C165.539 116.235 179.404 122.633 194.024 122.633C208.64 122.633 222.509 116.232 232.05 105.294C241.59 116.235 255.455 122.633 270.075 122.633C286.411 122.633 301.816 114.635 311.283 101.24C312.529 99.4799 312.11 97.0479 310.35 95.8047C308.581 94.5615 306.158 94.9777 304.914 96.7378C296.9 108.07 283.875 114.833 270.07 114.833C256.264 114.833 243.239 108.07 235.23 96.7405C233.767 94.673 230.326 94.673 228.862 96.7405C220.853 108.071 207.828 114.833 194.023 114.833C180.217 114.833 167.192 108.07 159.184 96.7405C157.72 94.673 154.279 94.673 152.815 96.7405C144.804 108.071 131.779 114.833 117.973 114.833C104.168 114.833 91.1426 108.07 83.1339 96.7405C81.6703 94.673 78.2291 94.673 76.7656 96.7405C68.7569 108.071 55.7319 114.833 41.9263 114.833C28.1207 114.833 15.0958 108.07 7.08705 96.7405C5.8466 94.9805 3.41461 94.5643 1.65179 95.8075C-0.108243 97.0479 -0.527207 99.4827 0.718739 101.243H0.714908Z" fill="#FFECC7"/>
<path d="M0.714908 148.786C10.1847 162.18 25.59 170.179 41.9228 170.179C56.5391 170.179 70.4074 163.778 79.9482 152.839C89.4883 163.781 103.354 170.179 117.974 170.179C132.59 170.179 146.458 163.778 155.999 152.839C165.539 163.781 179.404 170.179 194.024 170.179C208.64 170.179 222.509 163.778 232.05 152.839C241.59 163.781 255.455 170.179 270.075 170.179C286.411 170.179 301.816 162.181 311.283 148.786C312.529 147.026 312.11 144.594 310.35 143.35C308.581 142.104 306.158 142.523 304.914 144.283C296.9 155.616 283.875 162.379 270.07 162.379C256.264 162.379 243.239 155.616 235.23 144.286C233.767 142.219 230.326 142.219 228.862 144.286C220.853 155.617 207.828 162.379 194.023 162.379C180.217 162.379 167.192 155.616 159.184 144.286C157.72 142.219 154.279 142.219 152.815 144.286C144.804 155.617 131.779 162.379 117.973 162.379C104.168 162.379 91.1426 155.616 83.1339 144.286C81.6703 142.219 78.2291 142.219 76.7656 144.286C68.7569 155.617 55.7319 162.379 41.9263 162.379C28.1207 162.379 15.0958 155.616 7.08705 144.286C5.8466 142.526 3.41461 142.107 1.65179 143.353C-0.108243 144.594 -0.527207 147.028 0.718739 148.786L0.714908 148.786Z" fill="#FFECC7"/>
<path d="M0.714908 196.33C10.1847 209.725 25.5899 217.723 41.9228 217.723C56.5391 217.723 70.4074 211.323 79.9482 200.384C89.4883 211.323 103.354 217.723 117.971 217.723C132.587 217.723 146.455 211.323 155.996 200.384C165.536 211.323 179.402 217.723 194.021 217.723C208.638 217.723 222.506 211.323 232.047 200.384C241.584 211.323 255.452 217.723 270.069 217.723C286.405 217.723 301.81 209.726 311.277 196.33C312.523 194.57 312.104 192.138 310.344 190.895C308.576 189.649 306.152 190.071 304.909 191.828C296.9 203.159 283.875 209.924 270.07 209.924C256.264 209.924 243.239 203.161 235.23 191.831C233.767 189.764 230.326 189.764 228.862 191.831C220.853 203.159 207.828 209.924 194.023 209.924C180.217 209.924 167.192 203.161 159.184 191.831C157.72 189.764 154.279 189.764 152.815 191.831C144.804 203.159 131.779 209.924 117.973 209.924C104.168 209.924 91.1426 203.161 83.1339 191.831C81.6703 189.764 78.2291 189.764 76.7656 191.831C68.7569 203.159 55.7319 209.924 41.9263 209.924C28.1207 209.924 15.0958 203.161 7.08705 191.831C5.8466 190.074 3.41461 189.652 1.65179 190.898C-0.108243 192.138 -0.527207 194.57 0.718739 196.331L0.714908 196.33Z" fill="#FFECC7"/>
</svg>
