<svg width="169" height="116" viewBox="0 0 169 116" fill="none" xmlns="http://www.w3.org/2000/svg">
<path fill-rule="evenodd" clip-rule="evenodd" d="M105.836 93.5573H63.167C62.0777 93.5573 61.1865 92.6661 61.1865 91.5768V38.116L53.4639 24.5523C53.0678 23.9582 53.0678 23.166 53.4639 22.5719C53.86 21.9777 54.4541 21.5816 55.1473 21.5816H113.757C114.45 21.5816 115.143 21.9777 115.539 22.5719C115.836 23.166 115.836 23.9582 115.539 24.5523L107.816 38.116V91.5768C107.816 92.6661 106.925 93.5573 105.836 93.5573ZM65.1467 89.5976H103.856V37.6215C103.856 37.2254 103.955 36.9283 104.054 36.6313L110.391 25.5432H58.6137L64.851 36.6313C65.049 36.9283 65.1481 37.2254 65.1481 37.6215V89.5976H65.1467Z" fill="#F1BB55"/>
<path fill-rule="evenodd" clip-rule="evenodd" d="M95.5391 93.5573H73.4619C72.3726 93.5573 71.4814 92.6661 71.4814 91.5768V57.6202C71.4814 56.5309 72.3726 55.6397 73.4619 55.6397H95.5391C96.6284 55.6397 97.5196 56.5309 97.5196 57.6202V91.5768C97.5196 92.6661 96.6284 93.5573 95.5391 93.5573ZM75.441 89.5976H93.5585V59.5997H75.441V89.5976Z" fill="#F1BB55"/>
<path fill-rule="evenodd" clip-rule="evenodd" d="M63.1639 93.5573H20.4948C19.9997 93.5573 19.5046 93.3592 19.1084 92.9631C18.7123 92.567 18.5143 92.0719 18.5143 91.4778L23.5631 13.0685C23.6621 11.9793 24.4543 11.1871 25.5436 11.1871H63.1638C64.2531 11.1871 65.1443 12.0783 65.1443 13.1675V23.5624C65.1443 24.6517 64.2531 25.5429 63.1638 25.5429H58.6099L64.8472 36.631C65.0452 36.9281 65.1442 37.2252 65.1442 37.6212V91.577C65.1442 92.6663 64.2531 93.5573 63.1639 93.5573ZM22.6706 89.5976H61.1842V38.1164L53.4615 24.5528C53.0654 23.9586 53.0654 23.1664 53.4615 22.5723C53.8576 21.9782 54.4518 21.5821 55.1449 21.5821H61.1842V15.1469H27.4237L22.6719 89.5968L22.6706 89.5976Z" fill="#F1BB55"/>
<path fill-rule="evenodd" clip-rule="evenodd" d="M63.1639 54.3526H23.069C21.9798 54.3526 21.0886 53.4614 21.0886 52.3722C21.0886 51.2829 21.9798 50.3917 23.069 50.3917H63.1639C64.2532 50.3917 65.1443 51.2829 65.1443 52.3722C65.1443 53.4614 64.2532 54.3526 63.1639 54.3526Z" fill="#F1BB55"/>
<path fill-rule="evenodd" clip-rule="evenodd" d="M148.406 93.5573H105.833C104.744 93.5573 103.853 92.6661 103.853 91.5768V37.621C103.853 37.2249 103.952 36.9278 104.051 36.6308L110.387 25.5427H105.833C104.744 25.5427 103.853 24.6515 103.853 23.5622V13.1673C103.853 12.0781 104.744 11.1869 105.833 11.1869H143.453C144.443 11.1869 145.335 11.9791 145.434 13.0683L150.384 91.4776C150.483 92.0717 150.285 92.5668 149.888 92.9629C149.492 93.359 148.997 93.5571 148.403 93.5571L148.406 93.5573ZM107.816 89.5975H146.329L141.577 15.1477H107.817V21.5829H113.757C114.549 21.5829 115.144 21.979 115.54 22.5731C115.837 23.1673 115.837 23.9594 115.54 24.5536L107.817 38.1172V89.5984L107.816 89.5975Z" fill="#F1BB55"/>
<path fill-rule="evenodd" clip-rule="evenodd" d="M145.931 54.3526H105.836C104.747 54.3526 103.856 53.4614 103.856 52.3722C103.856 51.2829 104.747 50.3917 105.836 50.3917H145.931C147.02 50.3917 147.911 51.2829 147.911 52.3722C147.911 53.4614 147.02 54.3526 145.931 54.3526Z" fill="#F1BB55"/>
<path fill-rule="evenodd" clip-rule="evenodd" d="M156.327 104.349H12.6726C11.5833 104.349 10.6921 103.458 10.6921 102.369V91.5774C10.6921 90.4882 11.5833 89.597 12.6726 89.597H156.327C157.417 89.597 158.308 90.4882 158.308 91.5774V102.369C158.308 103.458 157.417 104.349 156.327 104.349ZM14.6523 100.389H154.345V93.5579H14.6523V100.389Z" fill="#F1BB55"/>
<path fill-rule="evenodd" clip-rule="evenodd" d="M63.1639 15.148H12.4734C11.3841 15.148 10.4929 14.2568 10.4929 13.1675V1.98045C10.4929 0.891195 11.3841 0 12.4734 0H63.1639C64.2531 0 65.1443 0.891195 65.1443 1.98045V13.1675C65.1443 14.2568 64.2531 15.148 63.1639 15.148ZM14.4531 11.1883H61.1812V3.9609H14.4531V11.1883Z" fill="#F1BB55"/>
<path fill-rule="evenodd" clip-rule="evenodd" d="M156.523 15.148H105.833C104.744 15.148 103.853 14.2568 103.853 13.1675V1.98045C103.853 0.891195 104.744 0 105.833 0H156.523C157.613 0 158.504 0.891195 158.504 1.98045V13.1675C158.504 14.2568 157.613 15.148 156.523 15.148ZM107.813 11.1883H154.541V3.9609H107.813V11.1883Z" fill="#F1BB55"/>
<path fill-rule="evenodd" clip-rule="evenodd" d="M77.7189 39.6015H63.1648C62.0755 39.6015 61.1843 38.7103 61.1843 37.621C61.1843 36.5318 62.0755 35.6406 63.1648 35.6406H77.7189C78.8081 35.6406 79.6993 36.5318 79.6993 37.621C79.6993 38.7103 78.8081 39.6015 77.7189 39.6015Z" fill="#F1BB55"/>
<path fill-rule="evenodd" clip-rule="evenodd" d="M90.3907 39.6015H84.9456C83.8563 39.6015 82.9651 38.7103 82.9651 37.621C82.9651 36.5318 83.8563 35.6406 84.9456 35.6406H90.3907C91.4799 35.6406 92.3711 36.5318 92.3711 37.621C92.3711 38.7103 91.4799 39.6015 90.3907 39.6015Z" fill="#F1BB55"/>
<path fill-rule="evenodd" clip-rule="evenodd" d="M136.129 54.3526H118.11C117.021 54.3526 116.13 53.4614 116.13 52.3722V34.2546C116.13 28.8096 123.06 23.5625 126.03 21.4832C126.624 21.0871 127.515 21.0871 128.209 21.4832C131.179 23.5626 138.108 28.8096 138.108 34.2546V52.3722C138.108 53.4614 137.217 54.3526 136.128 54.3526H136.129ZM120.091 50.3929H134.15V34.2557C134.15 31.7801 130.784 28.2164 127.12 25.5429C123.457 28.2165 120.091 31.7802 120.091 34.2557V50.3929Z" fill="#F1BB55"/>
<path fill-rule="evenodd" clip-rule="evenodd" d="M50.8874 54.3526H32.7698C31.6806 54.3526 30.7894 53.4614 30.7894 52.3722V34.2546C30.7894 28.8096 37.7198 23.5625 40.6894 21.4832C41.3825 21.0871 42.2737 21.0871 42.9669 21.4832C45.9376 23.5626 52.8669 28.8096 52.8669 34.2546V52.3722C52.8669 53.4614 51.9757 54.3526 50.8864 54.3526H50.8874ZM34.7501 50.3929H48.908V34.2557C48.908 31.7801 45.5425 28.2164 41.8785 25.5429C38.2158 28.2165 34.7501 31.7802 34.7501 34.2557V50.3929Z" fill="#F1BB55"/>
<path fill-rule="evenodd" clip-rule="evenodd" d="M50.8874 93.5573H32.7698C31.6806 93.5573 30.7894 92.6661 30.7894 91.5768V73.4593C30.7894 68.0142 37.7198 62.7671 40.6894 60.6878C41.3825 60.2917 42.2737 60.2917 42.9669 60.6878C45.9376 62.7673 52.8669 68.0142 52.8669 73.4593V91.5768C52.8669 92.6661 51.9757 93.5573 50.8864 93.5573H50.8874ZM34.7501 89.5976H48.908V73.4603C48.908 70.9848 45.5425 67.52 41.8785 64.7476C38.2158 67.5202 34.7501 70.9848 34.7501 73.4603V89.5976Z" fill="#F1BB55"/>
<path fill-rule="evenodd" clip-rule="evenodd" d="M136.129 93.5573H118.11C117.021 93.5573 116.13 92.6661 116.13 91.5768V73.4593C116.13 68.0142 123.06 62.7671 126.03 60.6878C126.624 60.2917 127.515 60.2917 128.209 60.6878C131.179 62.7673 138.108 68.0142 138.108 73.4593V91.5768C138.108 92.6661 137.217 93.5573 136.128 93.5573H136.129ZM120.091 89.5976H134.15V73.4603C134.15 70.9848 130.784 67.52 127.12 64.7476C123.457 67.5202 120.091 70.9848 120.091 73.4603V89.5976Z" fill="#F1BB55"/>
<path fill-rule="evenodd" clip-rule="evenodd" d="M95.5391 70.8843H73.4619C72.3726 70.8843 71.4814 69.9931 71.4814 68.9039C71.4814 67.8146 72.3726 66.9234 73.4619 66.9234H95.5391C96.6284 66.9234 97.5196 67.8146 97.5196 68.9039C97.5196 69.9931 96.6284 70.8843 95.5391 70.8843Z" fill="#F1BB55"/>
<path fill-rule="evenodd" clip-rule="evenodd" d="M167.02 115.141H1.98045C0.891195 115.141 0 114.25 0 113.16V102.369C0 101.28 0.891195 100.389 1.98045 100.389H167.02C168.109 100.389 169 101.28 169 102.369V113.16C169 114.25 168.109 115.141 167.02 115.141ZM3.96015 111.181H165.037V104.35H3.96015V111.181Z" fill="#F1BB55"/>
</svg>
