<svg width="263" height="218" viewBox="0 0 263 218" fill="none" xmlns="http://www.w3.org/2000/svg">
<path d="M-7.07863 27.5444C7.53761 27.5444 21.4059 21.1434 30.9467 10.2052C40.4868 21.1464 54.3523 27.5444 68.972 27.5444C83.5883 27.5444 97.4566 21.1434 106.997 10.2052C116.538 21.1464 130.403 27.5444 145.023 27.5444C159.639 27.5444 173.507 21.1434 183.048 10.2052C192.588 21.1464 206.454 27.5444 221.073 27.5444C237.409 27.5444 252.814 19.5468 262.281 6.15136C263.527 4.39132 263.108 1.95932 261.348 0.716092C259.58 -0.527138 257.156 -0.110895 255.913 1.64914C247.899 12.9797 234.874 19.7446 221.068 19.7446C207.263 19.7446 194.238 12.9819 186.229 1.65193C184.765 -0.415573 181.324 -0.415573 179.861 1.65193C171.852 12.9797 158.827 19.7446 145.021 19.7446C131.216 19.7446 118.191 12.9819 110.182 1.65193C108.719 -0.415573 105.277 -0.415573 103.814 1.65193C95.8023 12.9797 82.7773 19.7446 68.9717 19.7446C55.1661 19.7446 42.1411 12.9819 34.1324 1.65193C32.6689 -0.415573 29.2276 -0.415573 27.7641 1.65193C19.7554 12.9797 6.73047 19.7446 -7.07514 19.7446C-20.8808 19.7446 -33.9057 12.9819 -41.9144 1.65193C-43.1549 -0.110824 -45.5869 -0.527068 -47.3497 0.716092C-49.1097 1.95654 -49.5287 4.39125 -48.2827 6.15136C-38.813 19.5461 -23.4077 27.5444 -7.07479 27.5444H-7.07863Z" fill="#FFECC7"/>
<path d="M-48.2852 53.6957C-38.8154 67.0904 -23.4101 75.0887 -7.07722 75.0887C7.53901 75.0887 21.4073 68.6877 30.9481 57.7495C40.4882 68.6908 54.3537 75.0887 68.9735 75.0887C83.5897 75.0887 97.458 68.6877 106.999 57.7495C116.539 68.6908 130.404 75.0887 145.024 75.0887C159.64 75.0887 173.509 68.6877 183.049 57.7495C192.59 68.6908 206.455 75.0887 221.075 75.0887C237.41 75.0887 252.816 67.0911 262.283 53.6957C263.529 51.9357 263.11 49.5037 261.35 48.2604C259.581 47.0172 257.158 47.4335 255.914 49.1935C247.9 60.5241 234.875 67.2862 221.07 67.2862C207.264 67.2862 194.239 60.5234 186.23 49.1935C184.767 47.126 181.326 47.126 179.862 49.1935C171.853 60.5241 158.828 67.2862 145.023 67.2862C131.217 67.2862 118.192 60.5234 110.183 49.1935C108.72 47.126 105.279 47.126 103.815 49.1935C95.8037 60.5241 82.7787 67.2862 68.9731 67.2862C55.1675 67.2862 42.1425 60.5234 34.1338 49.1935C32.6703 47.126 29.229 47.126 27.7655 49.1935C19.7568 60.5241 6.73188 67.2862 -7.07374 67.2862C-20.8794 67.2862 -33.9043 60.5234 -41.913 49.1935C-43.1535 47.4335 -45.5854 47.0172 -47.3483 48.2604C-49.1083 49.5009 -49.5273 51.9356 -48.2813 53.6957H-48.2852Z" fill="#FFECC7"/>
<path d="M-48.2852 101.243C-38.8154 114.635 -23.4101 122.633 -7.07722 122.633C7.53901 122.633 21.4073 116.232 30.9481 105.294C40.4882 116.235 54.3537 122.633 68.9735 122.633C83.5897 122.633 97.458 116.232 106.999 105.294C116.539 116.235 130.404 122.633 145.024 122.633C159.64 122.633 173.509 116.232 183.049 105.294C192.59 116.235 206.455 122.633 221.075 122.633C237.41 122.633 252.816 114.635 262.283 101.24C263.529 99.48 263.11 97.048 261.35 95.8048C259.581 94.5616 257.158 94.9778 255.914 96.7378C247.9 108.071 234.875 114.833 221.07 114.833C207.264 114.833 194.239 108.071 186.23 96.7406C184.767 94.6731 181.326 94.6731 179.862 96.7406C171.853 108.071 158.828 114.833 145.023 114.833C131.217 114.833 118.192 108.071 110.183 96.7406C108.72 94.6731 105.279 94.6731 103.815 96.7406C95.8037 108.071 82.7787 114.833 68.9731 114.833C55.1675 114.833 42.1425 108.071 34.1338 96.7406C32.6703 94.6731 29.229 94.6731 27.7655 96.7406C19.7568 108.071 6.73188 114.833 -7.07374 114.833C-20.8794 114.833 -33.9043 108.071 -41.913 96.7406C-43.1535 94.9806 -45.5854 94.5644 -47.3483 95.8076C-49.1083 97.048 -49.5273 99.4827 -48.2813 101.243H-48.2852Z" fill="#FFECC7"/>
<path d="M-48.2852 148.786C-38.8154 162.18 -23.4101 170.179 -7.07722 170.179C7.53901 170.179 21.4073 163.778 30.9481 152.839C40.4882 163.781 54.3537 170.179 68.9735 170.179C83.5897 170.179 97.458 163.778 106.999 152.839C116.539 163.781 130.404 170.179 145.024 170.179C159.64 170.179 173.509 163.778 183.049 152.839C192.59 163.781 206.455 170.179 221.075 170.179C237.41 170.179 252.816 162.181 262.283 148.786C263.529 147.026 263.11 144.594 261.35 143.35C259.581 142.104 257.158 142.523 255.914 144.283C247.9 155.616 234.875 162.379 221.07 162.379C207.264 162.379 194.239 155.616 186.23 144.286C184.767 142.219 181.326 142.219 179.862 144.286C171.853 155.617 158.828 162.379 145.023 162.379C131.217 162.379 118.192 155.616 110.183 144.286C108.72 142.219 105.279 142.219 103.815 144.286C95.8037 155.617 82.7787 162.379 68.9731 162.379C55.1675 162.379 42.1425 155.616 34.1338 144.286C32.6703 142.219 29.229 142.219 27.7655 144.286C19.7568 155.617 6.73188 162.379 -7.07374 162.379C-20.8794 162.379 -33.9043 155.616 -41.913 144.286C-43.1535 142.526 -45.5854 142.107 -47.3483 143.353C-49.1083 144.594 -49.5273 147.028 -48.2813 148.786L-48.2852 148.786Z" fill="#FFECC7"/>
<path d="M-48.2852 196.33C-38.8154 209.725 -23.4101 217.723 -7.07723 217.723C7.53901 217.723 21.4073 211.322 30.9481 200.384C40.4882 211.323 54.3537 217.723 68.9707 217.723C83.5869 217.723 97.4552 211.322 106.996 200.384C116.536 211.323 130.402 217.723 145.021 217.723C159.638 217.723 173.506 211.322 183.047 200.384C192.584 211.323 206.452 217.723 221.069 217.723C237.405 217.723 252.81 209.726 262.277 196.33C263.523 194.57 263.104 192.138 261.344 190.895C259.576 189.649 257.152 190.071 255.909 191.828C247.9 203.159 234.875 209.924 221.07 209.924C207.264 209.924 194.239 203.161 186.23 191.831C184.767 189.763 181.325 189.763 179.862 191.831C171.853 203.159 158.828 209.924 145.023 209.924C131.217 209.924 118.192 203.161 110.183 191.831C108.72 189.763 105.279 189.763 103.815 191.831C95.8036 203.159 82.7787 209.924 68.9731 209.924C55.1675 209.924 42.1425 203.161 34.1338 191.831C32.6703 189.763 29.229 189.763 27.7655 191.831C19.7568 203.159 6.73187 209.924 -7.07374 209.924C-20.8794 209.924 -33.9043 203.161 -41.913 191.831C-43.1535 190.074 -45.5854 189.652 -47.3483 190.898C-49.1083 192.138 -49.5273 194.57 -48.2813 196.33L-48.2852 196.33Z" fill="#FFECC7"/>
</svg>
