<svg width="94" height="101" viewBox="0 0 94 101" fill="none" xmlns="http://www.w3.org/2000/svg">
<path d="M20.9827 14.0429C21.1941 12.133 18.8614 11.7101 18.8614 11.7101H2.09332C2.09332 11.7101 -1.09046 9.16333 0.39482 7.88936C1.8801 6.61549 23.1068 0.0347523 23.1068 0.0347523H38.8117C38.8117 0.0347523 41.5727 -0.813612 41.5727 5.87289C41.5727 12.5584 41.7841 17.0161 48.1517 24.0207L54.5193 31.0252L93.9982 87.062C93.9982 87.062 94.2069 91.0915 90.1774 89.8176C86.1479 88.5437 98.6644 110.196 78.0793 94.6999C78.0793 94.6999 64.4932 78.9977 59.8223 67.9584C55.1558 56.92 57.4941 79.8426 57.4941 79.8426C57.4941 79.8426 59.6136 87.9068 48.577 81.1164V93.8488H64.9162L64.7074 98.0923H5.06384V93.6346H21.8337C21.8337 93.6346 24.3805 92.9977 25.8657 90.6675C27.351 88.3347 29.0495 79.2064 29.0495 79.2064L28.8372 53.9476C28.8372 53.9476 30.5357 51.3981 20.5598 34.2055C20.5598 34.2073 20.7713 15.9529 20.9827 14.0422L20.9827 14.0429ZM18.8605 4.60006L10.5483 7.41612L22.9601 8.54074L26.1857 8.92184L26.4229 31.7132L47.0001 71.7742L49.7193 73.2364L51.1468 73.1067L50.7995 64.3611L33.1741 38.0221L32.9627 30.3806L44.7579 30.3859V28.0504L36.9947 18.0611L35.7208 4.58504L18.8605 4.60006ZM40.4763 35.1803L40.5554 36.3786C40.829 40.7056 48.8257 55.3223 63.9607 62.4447C74.4669 67.39 76.805 72.9411 76.805 72.9411L77.6604 71.7614L59.9018 47.4237L49.693 35.2999L40.4763 35.1803ZM66.9244 73.4789L79.1426 89.9244L86.6943 95.5086L85.878 90.2922L70.8748 72.8364L64.6415 68.8619L66.9244 73.4789ZM41.6247 93.4753V73.8973L34.1424 60.6851L34.8442 81.082L31.1824 93.4964L41.6247 93.4753Z" fill="#F1BB55"/>
</svg>
