<svg width="146" height="117" viewBox="0 0 146 117" fill="none" xmlns="http://www.w3.org/2000/svg">
<path d="M50.2581 88.0144H55.4363H55.4352C56.4227 88.0144 57.223 87.2141 57.223 86.2266C57.223 85.2391 56.4227 84.4388 55.4352 84.4388H50.2581C49.2706 84.4388 48.4703 85.2391 48.4703 86.2266C48.4703 87.2141 49.2705 88.0144 50.2581 88.0144Z" fill="#F1BB55"/>
<path d="M43.0142 95.0973H37.538C36.5505 95.0973 35.7502 95.8986 35.7502 96.8851C35.7502 97.8726 36.5505 98.6728 37.538 98.6728H43.0142C44.0017 98.6728 44.802 97.8726 44.802 96.8851C44.802 95.8986 44.0017 95.0973 43.0142 95.0973Z" fill="#F1BB55"/>
<path d="M55.9979 107.544C55.9979 108.531 56.7982 109.332 57.7857 109.332H61.474C62.4605 109.332 63.2618 108.531 63.2618 107.544C63.2618 106.557 62.4605 105.756 61.474 105.756H57.7857C56.7982 105.756 55.9979 106.557 55.9979 107.544Z" fill="#F1BB55"/>
<path d="M91.0367 72.0287H98.8966C99.883 72.0287 100.684 71.2284 100.684 70.2409C100.684 69.2534 99.883 68.4531 98.8966 68.4531H91.0367C90.0491 68.4531 89.2489 69.2534 89.2489 70.2409C89.2489 71.2284 90.0491 72.0287 91.0367 72.0287Z" fill="#F1BB55"/>
<path d="M78.914 82.6858H85.284C86.2715 82.6858 87.0718 81.8855 87.0718 80.898C87.0718 79.9115 86.2715 79.1102 85.284 79.1102H78.914C77.9265 79.1102 77.1262 79.9115 77.1262 80.898C77.1262 81.8855 77.9265 82.6858 78.914 82.6858Z" fill="#F1BB55"/>
<path d="M97.0763 91.5558C97.0763 92.5434 97.8765 93.3436 98.8641 93.3436H105.83C106.817 93.3436 107.618 92.5434 107.618 91.5558C107.618 90.5683 106.817 89.7681 105.83 89.7681H98.8641C97.8765 89.7681 97.0763 90.5683 97.0763 91.5558Z" fill="#F1BB55"/>
<path d="M96.8121 48.0502C97.7986 48.0502 98.5999 47.2489 98.5999 46.2624C98.5999 45.2749 97.7986 44.4747 96.8121 44.4747H94.0176C93.0301 44.4747 92.2299 45.2749 92.2299 46.2624C92.2299 47.2489 93.0301 48.0502 94.0176 48.0502H96.8121Z" fill="#F1BB55"/>
<path d="M118.815 104.003H123.994C124.98 104.003 125.781 103.202 125.781 102.215C125.781 101.227 124.98 100.427 123.994 100.427H118.815C117.828 100.427 117.028 101.227 117.028 102.215C117.028 103.202 117.828 104.003 118.815 104.003Z" fill="#F1BB55"/>
<path d="M16.6658 22.5271H28.15C31.5703 22.5271 33.9602 20.535 33.9602 17.6821L33.9591 17.6831C33.957 16.4626 33.5526 15.2782 32.8077 14.3119C32.0639 13.3457 31.021 12.6529 29.8419 12.3401C29.5588 10.2703 28.3319 8.44961 26.5197 7.41087C24.7075 6.37227 22.5154 6.23393 20.5872 7.03629C18.659 7.83865 17.2116 9.49127 16.6722 11.5089C16.6233 11.5089 16.5733 11.5068 16.5233 11.5068C15.159 11.5078 13.8512 12.0495 12.8859 13.0136C11.9207 13.9777 11.378 15.2845 11.3759 16.6488C11.3759 19.3677 13.6862 22.5271 16.6658 22.5271ZM16.5232 15.0824C16.8106 15.0824 17.0915 15.1622 17.3362 15.3122C17.9183 15.6655 18.6494 15.657 19.224 15.292C19.7976 14.9259 20.1147 14.2662 20.0402 13.5894C19.9285 12.6827 20.2158 11.7718 20.8277 11.0929C21.4396 10.4139 22.3154 10.033 23.2284 10.05C24.1425 10.067 25.0034 10.4789 25.5898 11.1791C26.1761 11.8803 26.4304 12.8008 26.2857 13.7032C26.2059 14.248 26.3804 14.7993 26.7603 15.1973C27.1402 15.5953 27.6819 15.7964 28.2299 15.7432C28.2948 15.7368 28.3608 15.7325 28.4268 15.7325C29.5047 15.7325 30.3795 16.6051 30.3827 17.6831C30.3827 18.9378 28.2405 18.9527 28.148 18.9527L16.666 18.9516C15.9892 18.9516 14.9527 17.7161 14.9527 16.6488H14.9516C14.9548 15.7826 15.657 15.0824 16.5232 15.0824Z" fill="#F1BB55"/>
<path d="M1.7873 116.229H144.212C144.854 116.229 145.448 115.883 145.766 115.324C146.085 114.765 146.077 114.078 145.747 113.525L113.277 59.0598H126.702C131.32 59.0598 134.544 56.4325 134.544 52.6697H134.543C134.54 50.9266 133.925 49.241 132.804 47.9056C131.684 46.5711 130.13 45.6719 128.414 45.3665C128.207 42.3486 126.536 39.6233 123.938 38.073C121.34 36.5225 118.148 36.3427 115.393 37.5931C112.639 38.8424 110.671 41.3634 110.128 44.3399C109.819 44.2962 109.507 44.2749 109.195 44.2749C107.778 44.3101 106.407 44.7847 105.272 45.6328L102.557 41.0771C107.561 37.0556 110.665 31.1326 111.122 24.7307C111.581 18.3278 109.352 12.0229 104.972 7.33094C100.591 2.63904 94.4549 -0.0181588 88.0359 9.34144e-05C81.616 0.0171197 75.4939 2.70728 71.1395 7.42248C66.7851 12.1386 64.5908 18.4555 65.0836 24.8552C65.5763 31.2561 68.7122 37.1621 73.7373 41.1547L59.5267 64.3244L46.5794 42.6765C46.258 42.1391 45.6791 41.8092 45.0534 41.806H45.0449H45.046C44.4224 41.8071 43.8445 42.1306 43.52 42.6626L0.262218 113.508C-0.0751207 114.061 -0.0878962 114.751 0.229232 115.315C0.545295 115.879 1.14122 116.228 1.78822 116.228L1.7873 116.229ZM109.195 47.8513C109.792 47.8524 110.377 48.0173 110.888 48.328C111.47 48.6813 112.202 48.6739 112.776 48.3078C113.35 47.9417 113.666 47.282 113.592 46.6052C113.425 45.0643 113.898 43.5214 114.902 42.3391C115.904 41.1568 117.349 40.4396 118.898 40.3534C120.446 40.2682 121.961 40.8237 123.088 41.8879C124.215 42.9531 124.856 44.4333 124.858 45.9848C124.856 46.2604 124.832 46.536 124.789 46.8095C124.709 47.3544 124.883 47.9056 125.263 48.3036C125.643 48.7026 126.185 48.9037 126.733 48.8495C126.865 48.8367 126.995 48.8303 127.118 48.8303C129.24 48.8303 130.963 50.5479 130.967 52.6709C130.967 55.4068 127.137 55.4856 126.7 55.4856H111.144L107.122 48.7399V48.7388C107.688 48.211 108.421 47.8971 109.195 47.8513ZM68.5904 23.1122C68.5808 16.4518 71.9711 10.2466 77.5814 6.65634C83.1905 3.06474 90.2446 2.58501 96.2902 5.38149C102.335 8.17926 106.535 13.8669 107.429 20.4668C108.323 27.0676 105.788 33.6675 100.704 37.972L89.8883 19.8293V19.8304C89.568 19.293 88.9901 18.9621 88.3644 18.9578C87.7397 18.9599 87.1608 19.2824 86.8288 19.8102L75.6223 38.0826C71.1676 34.388 68.5893 28.9001 68.5904 23.1122ZM83.5267 32.034L75.056 64.1415C74.9145 64.6779 75.0294 65.2493 75.3678 65.6888C75.7062 66.1283 76.2298 66.3858 76.7842 66.3858C77.5961 66.3858 78.3059 65.8389 78.5124 65.0546L79.4839 61.3714H91.4056C92.3921 61.3714 93.1934 60.5712 93.1934 59.5837C93.1934 58.5962 92.3921 57.7959 91.4056 57.7959H80.429L88.9963 25.3152L119.48 76.4459H109.093C108.106 76.4459 107.305 77.2461 107.305 78.2336C107.305 79.2212 108.106 80.0214 109.093 80.0214H121.612L141.066 112.652H88.4292L86.4424 109.33H88.3408C89.3284 109.33 90.1286 108.53 90.1286 107.542C90.1286 106.555 89.3284 105.754 88.3408 105.754H84.3036L72.8352 86.5805L75.37 76.9714H75.371C75.5977 76.0264 75.0284 75.0729 74.0888 74.825C73.1491 74.577 72.1829 75.1251 71.9147 76.0594L70.2717 82.2899L61.5978 67.7879L83.5267 32.034ZM45.6901 48.157L53.0499 60.4595H52.6423C51.6548 60.4595 50.8545 61.2608 50.8545 62.2473C50.8545 63.2348 51.6548 64.035 52.6423 64.035H55.1877L72.1716 92.4322H62.8964C61.9089 92.4322 61.1087 93.2335 61.1087 94.2199C61.1087 95.2075 61.9089 96.0077 62.8964 96.0077H74.3084L84.2635 112.652L28.6651 112.653L37.9827 77.3583H45.4816C46.4692 77.3583 47.2694 76.5581 47.2694 75.5705C47.2694 74.583 46.4692 73.7828 45.4816 73.7828H38.9267L45.6901 48.157ZM40.1927 54.9738L24.9668 112.653H4.97354L40.1927 54.9738Z" fill="#F1BB55"/>
</svg>
