<svg width="159" height="219" viewBox="0 0 159 219" fill="none" xmlns="http://www.w3.org/2000/svg">
<path d="M59.9437 180.944H92.2312C93.7064 180.944 94.9019 179.748 94.9019 178.273C94.9019 176.799 93.7064 175.602 92.2312 175.602H59.9437C58.4684 175.602 57.2729 176.799 57.2729 178.273C57.2729 179.748 58.4684 180.944 59.9437 180.944Z" fill="#F1BB55"/>
<path d="M100.523 180.944H106.907C108.383 180.944 109.578 179.748 109.578 178.273C109.578 176.799 108.383 175.602 106.907 175.602H100.523C99.0475 175.602 97.8521 176.799 97.8521 178.273C97.8521 179.748 99.0475 180.944 100.523 180.944Z" fill="#F1BB55"/>
<path d="M115.361 187.96H85.7445C84.2692 187.96 83.0737 189.155 83.0737 190.631C83.0737 192.106 84.2692 193.301 85.7445 193.301H115.361C116.836 193.301 118.032 192.106 118.032 190.631C118.032 189.155 116.836 187.96 115.361 187.96Z" fill="#F1BB55"/>
<path d="M75.677 187.96H60.3888C58.9135 187.96 57.718 189.155 57.718 190.631C57.718 192.106 58.9135 193.301 60.3888 193.301H75.677C77.1523 193.301 78.3478 192.106 78.3478 190.631C78.3478 189.155 77.1523 187.96 75.677 187.96Z" fill="#F1BB55"/>
<path d="M114.767 180.944H114.919C116.395 180.944 117.59 179.748 117.59 178.273C117.59 176.799 116.395 175.602 114.919 175.602H114.767C113.291 175.602 112.096 176.799 112.096 178.273C112.096 179.748 113.291 180.944 114.767 180.944Z" fill="#F1BB55"/>
<path d="M77.0731 141.651C77.0731 143.126 78.2685 144.321 79.7438 144.321C81.2175 144.321 82.4146 143.126 82.4146 141.651V132.425C82.5513 132.463 82.6912 132.498 82.8326 132.535C82.9439 134.285 83.4113 136.586 84.912 138.382H84.9104C86.3141 140.027 88.3586 140.984 90.5189 141.008C91.0912 141.032 91.8575 141.042 92.7207 141.042C96.1609 141.042 101.13 140.887 101.391 140.879C102.866 140.833 104.024 139.6 103.978 138.124C103.932 136.649 102.698 135.492 101.223 135.538C101.145 135.541 93.4093 135.783 90.7465 135.671C89.6941 135.627 89.2569 135.247 89.02 134.966C88.6035 134.401 88.3412 133.737 88.2601 133.04C91.473 132.813 95.0195 131.581 98.4869 128.424L101.255 128.478H101.307C102.782 128.492 103.991 127.308 104.005 125.832C104.019 124.357 102.835 123.151 101.36 123.136L98.6268 123.084C94.5156 118.807 90.1362 116.763 85.6196 117.006C78.2225 117.402 73.4854 123.901 73.2864 124.177V124.176C72.4979 125.276 72.6584 126.792 73.6584 127.703C74.7171 128.621 75.8602 129.435 77.0747 130.134L77.0731 141.651ZM85.934 122.339C88.4299 122.216 90.9687 123.303 93.5249 125.578H93.5233C90.6363 127.717 86.8892 128.313 83.4809 127.176C82.0676 126.736 80.7147 126.119 79.4557 125.338C80.9373 124.011 83.2204 122.472 85.934 122.339Z" fill="#F1BB55"/>
<path d="M87.4672 112.772C91.5622 112.896 95.3665 114.864 98.7831 118.617C99.2886 119.174 100.007 119.49 100.759 119.49H104.966C106.441 119.49 107.636 118.294 107.636 116.819C107.636 115.345 106.441 114.148 104.966 114.148H101.909C97.6797 109.85 92.8803 107.591 87.6295 107.432C77.697 107.133 69.9104 114.589 69.5844 114.907C68.5272 115.935 68.505 117.627 69.5336 118.684C70.5621 119.741 72.2536 119.763 73.3108 118.735C73.3759 118.671 79.7665 112.535 87.4672 112.772Z" fill="#F1BB55"/>
<path d="M102.981 60.7284L99.7027 64.3212L96.2037 60.6776H96.2021C95.2197 59.6554 93.6077 59.5791 92.533 60.5043L87.8895 64.5024L84.4859 60.7364C84.0105 60.2117 83.346 59.8954 82.637 59.8604C81.9296 59.8255 81.2364 60.0719 80.7118 60.5472L76.4785 64.3801L73.5121 60.8191H73.5136C73.0606 60.269 72.4088 59.9225 71.7014 59.8557C70.9923 59.7889 70.2865 60.0067 69.7412 60.463C69.1943 60.9176 68.851 61.5726 68.789 62.28C68.727 62.989 68.9496 63.6933 69.409 64.237L74.1575 69.9378C74.6233 70.4958 75.2958 70.8408 76.0223 70.8917C76.7471 70.9426 77.4626 70.6961 78.0015 70.2081L82.3162 66.3021L85.6769 70.0189C86.6498 71.0951 88.3031 71.1985 89.4016 70.2526L94.1042 66.202L97.8273 70.0777C98.336 70.6135 99.0466 70.9123 99.7858 70.898C100.525 70.8885 101.226 70.5737 101.725 70.0268L106.927 64.3276H106.925C107.412 63.8062 107.669 63.1115 107.641 62.3993C107.612 61.6855 107.299 61.0146 106.773 60.5345C106.246 60.0528 105.549 59.8032 104.836 59.8398C104.124 59.8764 103.456 60.1959 102.981 60.7269L102.981 60.7284Z" fill="#F1BB55"/>
<path d="M88.2039 48.6088C91.2991 48.5898 94.2608 47.3434 96.4385 45.1432C98.6165 42.9431 99.8326 39.9702 99.8199 36.8736C99.8072 33.7784 98.5672 30.815 96.3718 28.6324C94.1764 26.4513 91.2053 25.2288 88.1082 25.2351C85.013 25.2415 82.0464 26.4751 79.8605 28.6658C77.6731 30.858 76.4458 33.8262 76.4458 36.9212C76.4585 40.0291 77.7033 43.005 79.9082 45.1973C82.1116 47.388 85.0959 48.6152 88.2039 48.6088ZM88.2039 30.5763C89.8827 30.5938 91.4867 31.2774 92.6631 32.4761C93.8379 33.6747 94.4913 35.2899 94.4785 36.9686C94.4674 38.6474 93.7886 40.253 92.5947 41.4343C91.4008 42.6156 89.7888 43.2736 88.1099 43.2673C86.4295 43.2609 84.8223 42.59 83.6381 41.401C82.4521 40.2118 81.7876 38.5999 81.7876 36.921C81.7988 35.2296 82.4807 33.6112 83.6842 32.422C84.8876 31.2328 86.5126 30.57 88.2039 30.5763Z" fill="#F1BB55"/>
<path d="M9.24724 52.5849H30.8216C36.8419 52.5849 41.0451 49.14 41.0451 44.2086C41.0372 41.9957 40.2725 39.8512 38.8751 38.1342C37.4778 36.4156 35.5335 35.2297 33.3684 34.7719C32.9742 30.9772 30.7931 27.599 27.4991 25.6753C24.2036 23.7517 20.1895 23.5148 16.6903 25.0394C13.1929 26.5623 10.6301 29.6622 9.79421 33.3839C9.52396 33.3585 9.25371 33.3458 8.98027 33.3458V33.3474C6.60522 33.3426 4.32696 34.2821 2.64373 35.9561C0.960211 37.6301 0.00793594 39.905 0 42.2784C0.0667677 44.7743 0.97767 47.1747 2.58492 49.0858C4.40518 51.3098 6.83268 52.5849 9.24724 52.5849ZM8.98017 38.6892C9.64626 38.6908 10.2997 38.8736 10.8703 39.2186C11.7399 39.7432 12.8321 39.7289 13.6874 39.1821C14.5426 38.6352 15.0148 37.6496 14.9035 36.6401C14.8749 36.4016 14.8606 36.1616 14.859 35.9199C14.886 33.5767 16.1515 31.4225 18.1863 30.259C20.2196 29.0953 22.7188 29.0953 24.752 30.259C26.7868 31.4227 28.0523 33.5767 28.0793 35.9199C28.0761 36.2395 28.0491 36.559 27.9982 36.8738C27.8774 37.6877 28.1381 38.5112 28.7041 39.1074C29.27 39.7019 30.0792 40.004 30.8979 39.9245C31.0537 39.9102 31.1983 39.9022 31.3398 39.9022C33.7324 39.8911 35.683 41.8163 35.7021 44.2088C35.7021 47.1578 31.3191 47.2436 30.8201 47.2436H9.24739C7.49391 47.2436 5.33981 44.5061 5.33981 42.279C5.3557 40.2839 6.98349 38.6781 8.98017 38.6892Z" fill="#F1BB55"/>
<path d="M46.0822 171.009H47.8706V199.61V199.609C44.4273 200.361 41.3416 202.267 39.1289 205.01C36.9144 207.754 35.7062 211.174 35.7014 214.698V216.328C35.7014 217.803 36.8969 218.998 38.3722 218.998H138.039C139.515 218.998 140.71 217.803 140.71 216.328V214.698C140.705 211.172 139.497 207.755 137.283 205.009C135.07 202.265 131.984 200.359 128.541 199.608V171.009H130.331C131.806 171.009 133.002 169.814 133.002 168.338V155.139C133.002 153.665 131.806 152.468 130.331 152.468H124.291V78.6392H148.775C154.795 78.6392 158.998 75.1943 158.998 70.263H159C158.992 68.0501 158.227 65.9055 156.83 64.1869C155.433 62.47 153.488 61.284 151.323 60.8262C150.929 57.0315 148.75 53.6501 145.454 51.7267C142.158 49.8031 138.143 49.5663 134.644 51.0908C131.147 52.6138 128.584 55.7153 127.748 59.4386C127.478 59.4132 127.207 59.4005 126.934 59.4005L126.936 59.4021C126.039 59.4021 125.149 59.5356 124.292 59.7963V31.7405C124.295 28.3195 122.766 25.0764 120.125 22.9015L95.6654 2.66123C93.5845 0.942716 90.9694 0.00159526 88.2716 8.06935e-06C85.5722 -0.00317119 82.957 0.933193 80.8712 2.64691L56.3069 22.8986C53.6552 25.0734 52.1195 28.3227 52.1228 31.7519V152.468H46.0817C44.6064 152.468 43.411 153.663 43.411 155.138V168.338C43.411 169.046 43.6923 169.726 44.1931 170.227C44.6939 170.727 45.3743 171.009 46.0817 171.009L46.0822 171.009ZM124.29 65.8725C125.473 64.6325 127.358 64.3829 128.824 65.2716C129.693 65.7962 130.786 65.7819 131.641 65.235C132.496 64.6882 132.968 63.7025 132.857 62.693C132.673 60.895 133.232 59.1018 134.405 57.7284C135.579 56.3549 137.264 55.5218 139.067 55.4233C140.871 55.3247 142.637 55.9685 143.952 57.207C145.268 58.4438 146.02 60.167 146.033 61.973C146.03 62.2925 146.003 62.6105 145.952 62.9268C145.831 63.7408 146.092 64.5643 146.659 65.1604C147.225 65.7566 148.036 66.057 148.855 65.9775C149.006 65.9632 149.152 65.9553 149.293 65.9553C151.686 65.9426 153.636 67.8693 153.656 70.2619C153.656 73.2124 149.273 73.2966 148.774 73.2966H124.292L124.29 65.8725ZM135.316 213.66H41.0944C41.3535 211.175 42.5251 208.876 44.3803 207.204C46.2355 205.532 48.6442 204.605 51.1413 204.602H125.267C127.765 204.605 130.173 205.532 132.028 207.204C133.883 208.877 135.053 211.177 135.314 213.66H135.316ZM53.214 199.26V171.012H123.201V199.26H53.214ZM57.4619 31.7549C57.4619 29.922 58.2854 28.1844 59.7034 27.0222L84.2711 6.77217C85.3966 5.84538 86.8099 5.33984 88.2676 5.34142C89.7254 5.34301 91.1371 5.85172 92.261 6.78015L116.719 27.0205C118.132 28.1826 118.951 29.9154 118.951 31.745V89.2826H57.4619V31.7549ZM48.7536 157.814H61.7734C63.2471 157.814 64.4441 156.619 64.4441 155.143C64.4441 153.668 63.2471 152.473 61.7734 152.473H57.4635L57.462 94.6258H118.951V152.473H79.5768C78.1015 152.473 76.906 153.67 76.906 155.143C76.906 156.619 78.1015 157.814 79.5768 157.814H127.66V165.672H48.7528L48.7536 157.814Z" fill="#F1BB55"/>
</svg>
