<svg width="22" height="29" viewBox="0 0 22 29" fill="none" xmlns="http://www.w3.org/2000/svg">
<path d="M11.0002 3.33332C13.9335 3.33332 16.3335 5.73332 16.3335 8.66666C16.3335 11.4667 13.5335 16 11.0002 19.2C8.46683 15.8667 5.66683 11.4667 5.66683 8.66666C5.66683 5.73332 8.06683 3.33332 11.0002 3.33332ZM11.0002 0.666656C6.60016 0.666656 3.00016 4.26666 3.00016 8.66666C3.00016 14.6667 11.0002 23.3333 11.0002 23.3333C11.0002 23.3333 19.0002 14.5333 19.0002 8.66666C19.0002 4.26666 15.4002 0.666656 11.0002 0.666656ZM11.0002 5.99999C9.5335 5.99999 8.3335 7.19999 8.3335 8.66666C8.3335 10.1333 9.5335 11.3333 11.0002 11.3333C12.4668 11.3333 13.6668 10.1333 13.6668 8.66666C13.6668 7.19999 12.4668 5.99999 11.0002 5.99999ZM21.6668 23.3333C21.6668 26.2667 16.8668 28.6667 11.0002 28.6667C5.1335 28.6667 0.333496 26.2667 0.333496 23.3333C0.333496 21.6 1.9335 20.1333 4.46683 19.0667L5.26683 20.2667C3.9335 20.9333 3.00016 21.7333 3.00016 22.6667C3.00016 24.5333 6.60016 26 11.0002 26C15.4002 26 19.0002 24.5333 19.0002 22.6667C19.0002 21.7333 18.0668 20.9333 16.6002 20.2667L17.4002 19.0667C20.0668 20.1333 21.6668 21.6 21.6668 23.3333Z" fill="#F1BB55"/>
</svg>
