<svg width="144" height="87" viewBox="0 0 144 87" fill="none" xmlns="http://www.w3.org/2000/svg">
<path d="M143.802 63.9523L142.292 59.8773C141.336 57.2664 138.815 55.5144 136.015 55.5144H115.215L113.341 48.2723C112.47 44.9172 110.792 41.7777 108.485 39.1901L104.145 34.3243C103.223 33.283 102.714 31.9514 102.714 30.591L102.762 26.1879H105.905C107.135 26.1879 108.277 25.635 109.037 24.6728C109.798 23.7094 110.069 22.4723 109.778 21.281L105.866 5.20505C105.1 2.14017 102.349 0 99.1798 0H85.6961C81.8669 0 78.3833 1.9312 76.3978 5.13385L69.4813 15.7265C68.0616 18.0026 67.6743 19.7502 68.0091 22.4745L69.8094 33.3098L19.5247 33.3087C14.3148 33.3087 9.56579 36.5649 7.7063 41.414L0.340029 60.6103C-0.291679 62.3457 -0.0327555 64.2846 1.0298 65.7954C2.09904 67.315 3.8491 68.2217 5.71311 68.2217H140.821C141.859 68.2217 142.835 67.7144 143.43 66.8634C144.024 66.0135 144.164 64.9244 143.802 63.952L143.802 63.9523ZM83.9655 65.0325L82.0725 56.6023C81.8817 55.7446 81.0346 55.2051 80.1618 55.3953C79.3012 55.5866 78.7566 56.4399 78.9508 57.2998L80.6863 65.0334L42.0678 65.0323L40.0498 59.8763C39.0866 57.2676 36.5654 55.5165 33.7762 55.5165H11.2016C10.3165 55.5165 9.60112 56.2295 9.60112 57.1117C9.60112 57.9939 10.3165 58.707 11.2016 58.707H33.775C35.2293 58.707 36.543 59.6203 37.0563 61.0086L38.6322 65.0335L37.0049 65.0324L35.5908 60.9788C35.2995 60.1466 34.3843 59.7028 33.5551 59.9965C32.7202 60.2868 32.2782 61.1946 32.5695 62.0256L33.6187 65.0335L5.71138 65.0324C4.87763 65.0324 4.12761 64.643 3.64879 63.9655C3.17668 63.2936 3.06842 62.4682 3.33852 61.7251L10.6959 42.5544C12.0866 38.9322 15.6335 36.4992 19.5265 36.4992L88.3833 36.4981C89.2684 36.4981 89.9839 35.7851 89.9839 34.9029V7.14614C89.9839 6.26396 89.2684 5.55088 88.3833 5.55088C87.4983 5.55088 86.7828 6.26396 86.7828 7.14614V33.3086H73.0512L72.6594 30.9469H74.8559C75.741 30.9469 76.4564 30.2338 76.4564 29.3516C76.4564 28.4695 75.741 27.7564 74.8559 27.7564H72.1281L71.867 26.1889H78.0381C78.9231 26.1889 79.6386 25.4759 79.6386 24.5937C79.6386 23.7115 78.9231 22.9984 78.0381 22.9984H71.337L71.174 22.0206C70.9151 19.8958 71.2778 18.8802 72.1785 17.4384L79.0973 6.84117C80.517 4.55399 82.9826 3.18906 85.6924 3.18906H99.1772C100.875 3.18906 102.347 4.33598 102.756 5.96573L106.665 22.0305C106.743 22.3532 106.607 22.589 106.52 22.7003C106.431 22.8104 106.233 22.9984 105.903 22.9984H101.177L97.1357 22.9995C96.2506 22.9995 95.5352 23.7126 95.5352 24.5948C95.5352 25.477 96.2506 26.19 97.1357 26.19H99.5632L99.5152 30.5752C99.5152 32.73 100.308 34.8091 101.749 36.4389L106.091 41.3093C108.062 43.5209 109.498 46.2051 110.242 49.0698L112.423 57.51C112.605 58.2131 113.243 58.7059 113.973 58.7059H136.012C137.471 58.7059 138.787 59.617 139.286 60.9797L140.818 65.0334H83.9645L83.9655 65.0325ZM72.1982 78.1293C72.1982 79.0115 71.4827 79.7246 70.5977 79.7246L6.3296 79.7234C5.44451 79.7234 4.72908 79.0104 4.72908 78.1282C4.72908 77.246 5.44451 76.5329 6.3296 76.5329H70.5977C71.4827 76.534 72.1982 77.2471 72.1982 78.1293ZM79.7664 79.7234C78.8814 79.7234 78.1659 79.0104 78.1659 78.1282C78.1659 77.246 78.8814 76.5329 79.7664 76.5329H89.5337C90.4188 76.5329 91.1342 77.246 91.1342 78.1282C91.1342 79.0104 90.4188 79.7234 89.5337 79.7234H79.7664ZM137.3 78.1293C137.3 79.0115 136.585 79.7246 135.699 79.7246L95.098 79.7234C94.2129 79.7234 93.4975 79.0104 93.4975 78.1282C93.4975 77.246 94.2129 76.5329 95.098 76.5329H135.699C136.582 76.534 137.299 77.2471 137.299 78.1293H137.3ZM113.5 85.4047C113.5 86.2869 112.785 87 111.899 87L75.3953 86.9989C74.5102 86.9989 73.7948 86.2858 73.7948 85.4036C73.7948 84.5215 74.5102 83.8084 75.3953 83.8084H111.897C112.781 83.8095 113.498 84.5248 113.498 85.4047H113.5Z" fill="#F1BB55"/>
</svg>
