<svg width="128" height="102" viewBox="0 0 128 102" fill="none" xmlns="http://www.w3.org/2000/svg">
<path d="M1.56232 101.599H126.059C126.621 101.599 127.14 101.296 127.418 100.808C127.696 100.319 127.69 99.7186 127.401 99.2349L99.0185 51.6256H110.753C114.79 51.6256 117.608 49.329 117.608 46.0398H117.607C117.605 44.5162 117.067 43.0427 116.087 41.8754C115.108 40.7089 113.75 39.9229 112.25 39.656C112.069 37.018 110.608 34.6357 108.337 33.2805C106.066 31.9252 103.276 31.768 100.868 32.861C98.4604 33.953 96.7404 36.1567 96.2651 38.7585C95.9953 38.7204 95.7228 38.7018 95.4502 38.7018C94.2112 38.7325 93.0132 39.1473 92.0207 39.8887L89.6478 35.9065C94.0215 32.3912 96.735 27.2138 97.1348 21.6177C97.5357 16.0207 95.587 10.5095 91.7583 6.40815C87.9287 2.30685 82.5653 -0.015873 76.9543 8.16558e-05C71.3425 0.0149648 65.991 2.3665 62.1847 6.48816C58.3785 10.6107 56.4603 16.1324 56.8911 21.7266C57.3218 27.3217 60.063 32.4843 64.4555 35.9743L52.0337 56.2275L40.7162 37.3045C40.4352 36.8348 39.9292 36.5464 39.3822 36.5436H39.3748H39.3757C38.8306 36.5446 38.3255 36.8273 38.0418 37.2924L0.229211 99.2204C-0.0656648 99.7032 -0.0768321 100.307 0.200377 100.8C0.476655 101.293 0.997564 101.598 1.56312 101.598L1.56232 101.599ZM95.4497 41.828C95.9716 41.8289 96.4832 41.9731 96.9297 42.2447C97.4385 42.5535 98.0784 42.547 98.5798 42.227C99.0821 41.907 99.3584 41.3303 99.2933 40.7387C99.1472 39.3918 99.5612 38.0431 100.438 37.0096C101.315 35.9762 102.578 35.3492 103.931 35.2738C105.285 35.1994 106.609 35.685 107.594 36.6152C108.579 37.5463 109.139 38.8402 109.141 40.1964C109.139 40.4373 109.119 40.6782 109.081 40.9173C109.011 41.3936 109.164 41.8754 109.496 42.2233C109.828 42.5721 110.301 42.7479 110.78 42.7005C110.896 42.6893 111.009 42.6837 111.117 42.6837C112.972 42.6837 114.478 44.1851 114.482 46.0409C114.482 48.4324 111.134 48.5013 110.752 48.5013H97.1538L93.6376 42.6047V42.6038C94.1325 42.1424 94.7735 41.868 95.4497 41.828ZM59.9565 20.2029C59.9481 14.3809 62.9117 8.95678 67.8157 5.81847C72.7188 2.67896 78.8849 2.25962 84.1695 4.70409C89.4531 7.14968 93.1244 12.1214 93.9059 17.8905C94.6873 23.6604 92.4716 29.4296 88.0279 33.1923L78.5735 17.3333V17.3342C78.2935 16.8645 77.7884 16.5752 77.2414 16.5715C76.6954 16.5733 76.1894 16.8552 75.8992 17.3166L66.1032 33.2889C62.2093 30.0594 59.9555 25.2622 59.9565 20.2029ZM73.0127 28.0017L65.6083 56.0676C65.4846 56.5365 65.585 57.036 65.8808 57.4202C66.1766 57.8043 66.6343 58.0294 67.1189 58.0294C67.8286 58.0294 68.4491 57.5513 68.6295 56.8658L69.4788 53.6462H79.8998C80.7621 53.6462 81.4626 52.9467 81.4626 52.0835C81.4626 51.2203 80.7621 50.5208 79.8998 50.5208H70.3049L77.7938 22.1286L104.441 66.8232H95.3609C94.4977 66.8232 93.7982 67.5227 93.7982 68.3859C93.7982 69.2491 94.4977 69.9486 95.3609 69.9486H106.304L123.309 98.4718H77.298L75.5613 95.5678H77.2208C78.084 95.5678 78.7835 94.8683 78.7835 94.0051C78.7835 93.1418 78.084 92.4423 77.2208 92.4423H73.6917L63.667 75.6821L65.8827 67.2825H65.8836C66.0817 66.4565 65.5841 65.623 64.7627 65.4063C63.9414 65.1896 63.0968 65.6686 62.8623 66.4853L61.4261 71.9316L53.8441 59.255L73.0127 28.0017ZM39.9388 42.0951L46.3721 52.8491H46.0159C45.1527 52.8491 44.4532 53.5495 44.4532 54.4118C44.4532 55.275 45.1527 55.9745 46.0159 55.9745H48.2409L63.0869 80.7972H54.9793C54.116 80.7972 53.4165 81.4976 53.4165 82.3599C53.4165 83.2231 54.116 83.9226 54.9793 83.9226H64.9548L73.6567 98.4719L25.0568 98.4728L33.2016 67.6207H39.7566C40.6198 67.6207 41.3193 66.9212 41.3193 66.058C41.3193 65.1948 40.6198 64.4953 39.7566 64.4953H34.0267L39.9388 42.0951ZM35.1334 48.0539L21.8241 98.4731H4.34749L35.1334 48.0539Z" fill="#F1BB55"/>
</svg>
