<svg width="191" height="230" viewBox="0 0 191 230" fill="none" xmlns="http://www.w3.org/2000/svg">
<path d="M30.9044 20.3057C41.6795 20.3057 51.9032 15.5869 58.9367 7.52324C65.9697 15.5892 76.1913 20.3057 86.969 20.3057C97.7441 20.3057 107.968 15.5869 115.001 7.52324C122.034 15.5892 132.256 20.3057 143.034 20.3057C153.809 20.3057 164.032 15.5869 171.066 7.52324C178.099 15.5892 188.32 20.3057 199.098 20.3057C211.141 20.3057 222.498 14.4099 229.477 4.53478C230.395 3.23728 230.086 1.44441 228.789 0.527903C227.485 -0.388606 225.698 -0.0817518 224.782 1.21575C218.874 9.56865 209.272 14.5557 199.094 14.5557C188.917 14.5557 179.315 9.57024 173.411 1.2178C172.332 -0.30636 169.795 -0.30636 168.716 1.2178C162.812 9.56865 153.21 14.5557 143.033 14.5557C132.855 14.5557 123.253 9.57024 117.349 1.2178C116.27 -0.30636 113.733 -0.30636 112.654 1.2178C106.748 9.56865 97.1462 14.5557 86.9687 14.5557C76.7912 14.5557 67.1892 9.57024 61.2852 1.2178C60.2063 -0.30636 57.6694 -0.30636 56.5905 1.2178C50.6865 9.56865 41.0845 14.5557 30.907 14.5557C20.7295 14.5557 11.1275 9.57024 5.22349 1.2178C4.30904 -0.0816997 2.51617 -0.388554 1.21662 0.527903C-0.0808769 1.44236 -0.389737 3.23723 0.528774 4.53478C7.50989 14.4094 18.8667 20.3057 30.9073 20.3057H30.9044Z" fill="#F1BB55"/>
<path d="M0.526927 56.9615C7.50804 66.8361 18.8648 72.7325 30.9054 72.7325C41.6805 72.7325 51.9042 68.0137 58.9377 59.95C65.9707 68.0159 76.1923 72.7325 86.97 72.7325C97.7451 72.7325 107.969 68.0137 115.002 59.95C122.035 68.0159 132.257 72.7325 143.035 72.7325C153.81 72.7325 164.033 68.0137 171.067 59.95C178.1 68.0159 188.321 72.7325 199.099 72.7325C211.142 72.7325 222.499 66.8366 229.478 56.9615C230.396 55.664 230.087 53.8712 228.79 52.9547C227.486 52.0381 225.699 52.345 224.783 53.6425C218.875 61.9954 209.273 66.9805 199.095 66.9805C188.918 66.9805 179.316 61.9949 173.412 53.6425C172.333 52.1183 169.796 52.1183 168.717 53.6425C162.813 61.9954 153.211 66.9805 143.034 66.9805C132.856 66.9805 123.254 61.9949 117.35 53.6425C116.271 52.1183 113.734 52.1183 112.655 53.6425C106.749 61.9954 97.1472 66.9805 86.9697 66.9805C76.7922 66.9805 67.1902 61.9949 61.2862 53.6425C60.2073 52.1183 57.6704 52.1183 56.5915 53.6425C50.6875 61.9954 41.0855 66.9805 30.908 66.9805C20.7305 66.9805 11.1285 61.9949 5.22447 53.6425C4.31001 52.345 2.51715 52.0381 1.2176 52.9547C-0.0799003 53.8691 -0.38876 55.664 0.529751 56.9615H0.526927Z" fill="#F1BB55"/>
<path d="M0.526927 109.384C7.50804 119.257 18.8648 125.153 30.9054 125.153C41.6805 125.153 51.9042 120.434 58.9377 112.37C65.9707 120.436 76.1923 125.153 86.97 125.153C97.7451 125.153 107.969 120.434 115.002 112.37C122.035 120.436 132.257 125.153 143.035 125.153C153.81 125.153 164.033 120.434 171.067 112.37C178.1 120.436 188.321 125.153 199.099 125.153C211.142 125.153 222.499 119.257 229.478 109.382C230.396 108.084 230.087 106.292 228.79 105.375C227.486 104.459 225.699 104.765 224.783 106.063C218.875 114.417 209.273 119.403 199.095 119.403C188.918 119.403 179.316 114.417 173.412 106.065C172.333 104.541 169.796 104.541 168.717 106.065C162.813 114.418 153.211 119.403 143.034 119.403C132.856 119.403 123.254 114.417 117.35 106.065C116.271 104.541 113.734 104.541 112.655 106.065C106.749 114.418 97.1472 119.403 86.9697 119.403C76.7922 119.403 67.1902 114.417 61.2862 106.065C60.2073 104.541 57.6704 104.541 56.5915 106.065C50.6875 114.418 41.0855 119.403 30.908 119.403C20.7305 119.403 11.1285 114.417 5.22447 106.065C4.31001 104.767 2.51715 104.461 1.2176 105.377C-0.0799003 106.292 -0.38876 108.086 0.529751 109.384H0.526927Z" fill="#F1BB55"/>
<path d="M0.526927 161.807C7.50804 171.681 18.8648 177.578 30.9054 177.578C41.6805 177.578 51.9042 172.859 58.9377 164.795C65.9707 172.861 76.1923 177.578 86.97 177.578C97.7451 177.578 107.969 172.859 115.002 164.795C122.035 172.861 132.257 177.578 143.035 177.578C153.81 177.578 164.033 172.859 171.067 164.795C178.1 172.861 188.321 177.578 199.099 177.578C211.142 177.578 222.499 171.682 229.478 161.807C230.396 160.509 230.087 158.716 228.79 157.8C227.486 156.881 225.699 157.19 224.783 158.488C218.875 166.842 209.273 171.828 199.095 171.828C188.918 171.828 179.316 166.842 173.412 158.49C172.333 156.966 169.796 156.966 168.717 158.49C162.813 166.843 153.211 171.828 143.034 171.828C132.856 171.828 123.254 166.842 117.35 158.49C116.271 156.966 113.734 156.966 112.655 158.49C106.749 166.843 97.1472 171.828 86.9697 171.828C76.7922 171.828 67.1902 166.842 61.2862 158.49C60.2073 156.966 57.6704 156.966 56.5915 158.49C50.6875 166.843 41.0855 171.828 30.908 171.828C20.7305 171.828 11.1285 166.842 5.22447 158.49C4.31001 157.192 2.51715 156.883 1.2176 157.802C-0.0799003 158.716 -0.38876 160.511 0.529751 161.807L0.526927 161.807Z" fill="#F1BB55"/>
<path d="M0.526927 214.229C7.50804 224.104 18.8648 230 30.9054 230C41.6805 230 51.9042 225.281 58.9377 217.217C65.9707 225.281 76.1923 230 86.9679 230C97.743 230 107.967 225.281 115 217.217C122.033 225.281 132.255 230 143.032 230C153.808 230 164.031 225.281 171.065 217.217C178.096 225.281 188.319 230 199.095 230C211.138 230 222.494 224.104 229.473 214.229C230.392 212.931 230.083 211.139 228.786 210.222C227.482 209.304 225.695 209.614 224.779 210.91C218.875 219.263 209.273 224.25 199.095 224.25C188.918 224.25 179.316 219.264 173.412 210.912C172.333 209.388 169.796 209.388 168.717 210.912C162.813 219.263 153.211 224.25 143.033 224.25C132.856 224.25 123.254 219.264 117.35 210.912C116.271 209.388 113.734 209.388 112.655 210.912C106.749 219.263 97.1472 224.25 86.9697 224.25C76.7922 224.25 67.1902 219.264 61.2862 210.912C60.2073 209.388 57.6704 209.388 56.5915 210.912C50.6875 219.263 41.0855 224.25 30.908 224.25C20.7305 224.25 11.1285 219.264 5.22447 210.912C4.31001 209.616 2.51715 209.306 1.2176 210.224C-0.0799003 211.139 -0.38876 212.931 0.529751 214.229L0.526927 214.229Z" fill="#F1BB55"/>
</svg>
